<?xml version="1.0" standalone="no"?>
<!DOCTYPE svg PUBLIC "-//W3C//DTD SVG 20010904//EN"
 "http://www.w3.org/TR/2001/REC-SVG-20010904/DTD/svg10.dtd">
<svg version="1.0" xmlns="http://www.w3.org/2000/svg"
 width="1600.000000pt" height="1689.000000pt" viewBox="0 0 1600.000000 1689.000000"
 preserveAspectRatio="xMidYMid meet">
<metadata>
Created by potrace 1.16, written by Peter Selinger 2001-2019
</metadata>
<g transform="translate(0.000000,1689.000000) scale(0.100000,-0.100000)"
fill="#000000" stroke="none">
<path d="M7755 15063 c-1280 -51 -2486 -500 -3495 -1301 -1380 -1096 -2235
-2742 -2351 -4525 -17 -261 -6 -841 20 -1072 58 -520 147 -927 298 -1375 122
-364 280 -727 430 -994 19 -33 31 -66 29 -73 -3 -8 -2 -11 4 -8 5 3 17 -9 26
-27 92 -180 413 -654 557 -823 28 -34 35 -51 15 -39 -7 4 -8 3 -4 -5 4 -6 11
-9 15 -7 4 3 29 -19 54 -49 45 -51 58 -73 38 -60 -5 3 -12 1 -16 -4 -3 -6 3
-8 14 -6 14 3 49 -29 134 -123 116 -129 343 -354 474 -471 40 -35 70 -67 68
-71 -3 -4 5 -16 17 -26 12 -11 18 -13 14 -6 -14 24 10 12 42 -21 18 -18 29
-37 25 -42 -5 -4 -2 -5 4 -1 16 9 95 -53 86 -67 -3 -6 -1 -7 5 -3 7 4 72 -39
151 -98 76 -58 164 -121 195 -141 34 -21 54 -40 50 -47 -4 -6 -3 -8 4 -4 6 3
59 -24 119 -62 642 -406 1328 -683 2018 -816 491 -94 797 -121 1295 -113 422
7 711 37 1110 118 314 64 776 203 974 293 31 14 60 26 63 26 4 0 42 16 85 35
43 19 115 52 161 72 202 90 473 237 699 380 67 42 123 71 129 67 7 -4 9 -3 5
4 -4 6 19 28 56 53 35 24 105 74 156 112 76 56 96 66 108 57 11 -10 17 -10 29
0 16 13 10 35 -6 24 -5 -3 -7 -10 -4 -15 4 -5 2 -9 -4 -9 -25 0 -16 20 24 53
47 40 66 48 44 20 -13 -16 -12 -17 3 -4 10 7 16 17 13 21 -3 4 17 25 43 46
201 164 496 447 684 656 745 830 1261 1863 1482 2968 225 1122 145 2291 -230
3372 -225 648 -587 1304 -1018 1842 -638 797 -1448 1418 -2366 1813 -793 341
-1711 511 -2575 476z m795 -752 c652 -76 1197 -236 1770 -519 228 -113 706
-400 595 -358 -115 44 -630 187 -903 251 -697 162 -1277 234 -1942 240 -531 5
-880 -20 -1405 -101 -444 -68 -1147 -236 -1545 -368 -41 -14 -76 -23 -78 -22
-1 2 48 36 110 77 642 415 1400 691 2168 788 265 34 385 40 730 36 244 -3 368
-9 500 -24z m60 -631 c524 -35 1034 -108 1485 -214 132 -32 486 -128 483 -132
-2 -1 -68 1 -148 6 -1296 78 -2674 91 -4020 40 -270 -11 -814 -36 -950 -44
l-75 -5 60 20 c99 33 510 135 670 168 445 89 923 147 1420 171 216 10 859 4
1075 -10z m-1675 -474 c86 -24 211 -87 277 -140 119 -95 217 -258 265 -441 31
-122 41 -316 23 -463 -44 -360 -223 -652 -439 -716 -56 -16 -156 -22 -149 -8
90 179 123 409 115 797 -7 345 -46 586 -121 750 -63 139 -154 172 -246 89
-101 -91 -175 -287 -215 -565 -17 -121 -20 -417 -5 -537 24 -190 86 -366 169
-474 51 -67 100 -105 170 -135 74 -30 203 -31 383 -2 208 33 322 18 383 -52
l20 -22 -25 7 c-113 32 -197 25 -381 -33 -253 -79 -422 -88 -600 -30 -194 63
-378 243 -484 472 -163 355 -166 817 -8 1131 97 193 264 334 448 380 81 21
335 16 420 -8z m979 -13 c90 -29 158 -118 187 -248 22 -95 16 -370 -15 -655
-62 -581 -18 -814 171 -906 46 -23 72 -28 160 -32 l106 -5 -6 29 c-3 16 -12
61 -21 99 -36 161 -50 420 -50 915 -1 518 4 585 52 679 43 87 110 113 328 127
l111 7 -23 -70 c-48 -143 -72 -349 -81 -703 -11 -461 32 -1011 89 -1123 11
-22 18 -40 16 -42 -5 -4 -280 -45 -373 -54 -345 -37 -611 -12 -766 71 -80 42
-124 96 -152 183 -20 63 -22 89 -21 265 1 131 9 250 23 365 66 528 61 751 -22
908 -32 61 -95 124 -134 133 -13 4 -23 9 -23 13 0 9 164 51 237 61 71 10 142
4 207 -17z m1958 13 c162 -31 295 -95 382 -182 43 -45 66 -85 29 -52 -25 22
-127 72 -193 94 -42 15 -84 19 -180 19 -117 0 -128 -2 -176 -27 -72 -38 -112
-81 -150 -163 -79 -167 -118 -396 -117 -700 0 -507 119 -865 288 -865 61 0
126 102 165 256 44 175 55 293 55 609 0 402 -24 572 -110 779 -8 17 -4 18 45
12 227 -28 412 -301 485 -718 19 -106 19 -318 0 -433 -51 -316 -212 -523 -465
-599 -83 -26 -249 -31 -340 -12 -364 77 -590 445 -590 963 0 516 240 936 583
1019 71 17 200 17 289 0z m1650 -16 c178 -37 288 -115 350 -247 55 -117 41
-257 -39 -391 -68 -115 -194 -224 -310 -268 l-45 -17 93 -19 c177 -35 276
-103 337 -229 53 -107 64 -211 37 -343 -41 -200 -158 -372 -317 -468 -62 -38
-100 -50 -81 -25 6 6 15 32 21 57 57 233 -19 573 -167 757 -84 104 -174 152
-314 168 l-58 7 6 -34 c27 -156 22 -435 -10 -558 -60 -232 -235 -370 -469
-370 l-69 0 20 23 c28 30 54 82 69 142 17 61 18 270 2 415 -6 58 -12 312 -13
570 -1 494 -7 563 -50 693 -14 39 -23 72 -22 73 5 5 333 56 437 68 63 8 200
14 303 15 154 1 207 -3 289 -19z m-7064 -14 c47 -24 101 -83 122 -132 60 -139
53 -333 -29 -819 -46 -273 -53 -508 -18 -616 52 -160 176 -259 286 -229 115
31 199 180 142 251 -25 32 -108 34 -140 5 -26 -24 -35 -17 -21 18 24 64 103
108 195 109 126 1 235 -104 235 -226 0 -188 -307 -377 -614 -377 -170 0 -282
43 -386 148 -161 165 -193 403 -123 937 37 286 39 545 6 651 -13 39 -38 94
-58 122 l-34 51 42 24 c136 79 224 109 302 104 34 -3 75 -12 93 -21z m1074 3
c137 -29 225 -115 264 -256 23 -81 29 -391 15 -783 -16 -466 3 -686 71 -828
16 -35 28 -65 26 -67 -1 -2 -32 -13 -68 -25 -83 -29 -185 -31 -260 -5 -81 27
-150 101 -179 191 -22 69 -22 72 -19 759 3 681 3 691 -19 790 -12 55 -36 126
-52 157 l-29 57 41 10 c59 13 147 13 209 0z m-646 -65 c133 -80 219 -196 249
-339 19 -89 19 -122 0 -230 -27 -153 -107 -321 -226 -475 -85 -109 -121 -149
-115 -125 23 85 58 260 71 360 19 141 22 439 5 565 -11 82 -41 226 -55 263
-10 25 4 21 71 -19z m7397 -1479 c106 -265 218 -660 292 -1032 134 -670 169
-1352 99 -1958 -162 -1410 -793 -2701 -1747 -3574 -367 -336 -698 -562 -1122
-767 -892 -431 -1876 -533 -2835 -294 -1438 358 -2657 1491 -3280 3051 -256
640 -397 1299 -429 2011 -37 795 140 1855 429 2577 78 195 100 230 100 156 0
-50 30 -212 56 -305 36 -123 120 -289 212 -415 236 -323 297 -432 351 -632
l28 -103 -64 0 c-267 0 -519 -295 -634 -743 -64 -251 -89 -566 -71 -879 7
-112 14 -216 17 -233 2 -16 9 -75 16 -130 59 -529 252 -1147 539 -1730 663
-1346 1716 -2223 2975 -2479 266 -54 437 -70 760 -70 314 -1 408 6 663 49
1350 228 2498 1192 3166 2659 306 670 465 1298 495 1957 21 467 -37 849 -174
1146 -52 110 -87 163 -168 250 -119 127 -245 192 -388 201 l-87 5 15 61 c30
130 91 269 166 381 22 33 93 125 156 205 142 177 179 232 236 352 56 118 92
241 113 392 l17 118 29 -63 c16 -35 47 -109 69 -164z m-8801 158 c-11 -21 -43
-101 -72 -178 -398 -1058 -509 -2222 -319 -3345 237 -1401 917 -2647 1915
-3506 710 -611 1544 -988 2429 -1098 286 -36 708 -43 965 -16 967 101 1809
469 2576 1127 129 110 410 390 521 518 468 540 836 1170 1088 1865 134 369
222 704 290 1105 30 176 40 253 60 445 41 398 41 866 -1 1284 -42 427 -133
875 -259 1281 -40 128 -147 422 -190 520 -63 146 146 -218 275 -480 334 -676
520 -1374 571 -2145 14 -214 6 -697 -15 -896 -60 -561 -179 -1051 -374 -1541
-354 -886 -935 -1679 -1657 -2259 -584 -469 -1221 -796 -1927 -988 -926 -252
-1929 -242 -2853 29 -409 121 -745 265 -1166 502 -85 49 -334 212 -443 291
-307 224 -702 592 -943 879 -633 752 -1052 1637 -1232 2598 -108 580 -123
1233 -41 1820 107 763 346 1437 760 2142 54 92 79 119 42 46z m7841 -525 c85
-170 72 -356 -29 -419 -36 -22 -48 -24 -174 -23 -74 0 -200 2 -280 5 -125 3
-151 1 -186 -14 -71 -32 -79 -59 -77 -232 2 -82 6 -170 11 -195 l7 -44 60 -13
c33 -7 107 -15 165 -19 165 -10 263 19 300 91 8 17 16 32 18 34 4 8 32 -34 67
-103 47 -92 46 -127 -2 -176 -54 -53 -134 -70 -340 -71 -193 0 -220 -8 -250
-69 -21 -39 -23 -59 -23 -180 0 -308 62 -481 192 -540 59 -27 131 -25 193 4
81 38 115 87 115 167 0 76 -75 113 -150 74 -27 -14 -30 -14 -30 0 0 51 88 113
174 122 98 10 188 -40 244 -135 33 -57 36 -138 8 -194 -59 -119 -231 -222
-449 -269 -227 -48 -456 4 -568 130 -150 167 -180 397 -147 1127 17 394 -5
590 -77 696 l-25 37 37 8 c21 4 191 7 378 5 426 -3 542 9 661 71 46 24 114 98
126 139 6 21 14 38 18 38 4 0 19 -24 33 -52z m-5858 -153 c159 -33 292 -131
356 -261 38 -78 50 -171 29 -236 -17 -49 -78 -105 -125 -114 -75 -14 -184 13
-283 69 l-54 30 33 14 c71 29 109 85 109 158 0 57 -19 96 -66 131 -47 36 -165
46 -246 19 -115 -37 -152 -89 -146 -204 8 -165 105 -271 405 -442 388 -221
509 -345 544 -556 52 -318 -241 -619 -656 -674 -292 -38 -592 88 -696 293
-111 220 114 445 402 401 97 -15 192 -63 225 -113 47 -71 41 -167 -13 -210
-28 -22 -55 -28 -35 -8 7 7 12 29 12 49 0 69 -65 97 -150 63 -99 -40 -93 -177
13 -271 82 -71 178 -78 294 -22 55 27 117 97 137 156 55 162 -37 302 -364 548
-330 249 -455 385 -505 552 -30 100 -14 266 36 366 70 139 227 237 429 266 90
14 240 12 315 -4z m2470 -9 c168 -26 310 -89 403 -179 28 -28 52 -55 52 -58 0
-4 -26 8 -57 27 -130 78 -330 114 -447 80 -76 -22 -129 -57 -165 -107 -70 -96
-129 -298 -152 -516 -14 -142 -6 -534 15 -643 36 -198 77 -319 136 -405 35
-51 74 -75 123 -75 49 0 82 31 121 113 142 299 149 1140 12 1479 l-24 58 43 0
c243 0 478 -391 504 -840 27 -464 -136 -792 -449 -900 -49 -17 -96 -24 -190
-28 -204 -8 -337 36 -465 151 -185 167 -286 416 -301 747 -24 496 185 936 506
1066 111 45 191 52 335 30z m1603 -7 c230 -24 362 -94 438 -231 27 -49 29 -61
29 -159 0 -105 0 -106 -44 -194 -35 -71 -61 -106 -130 -176 -84 -84 -211 -169
-254 -169 -10 0 -15 -4 -12 -10 3 -5 23 -10 44 -10 51 0 183 -35 239 -62 64
-33 107 -94 127 -181 14 -61 16 -106 10 -299 -8 -242 -2 -298 38 -370 20 -37
81 -88 106 -88 21 0 3 -17 -26 -24 -16 -3 -62 -15 -103 -26 -111 -31 -227 -29
-295 5 -108 52 -143 148 -176 475 -22 222 -71 344 -163 407 -59 40 -103 53
-185 53 l-64 0 6 -43 c40 -291 31 -443 -34 -583 -53 -114 -151 -199 -286 -250
-62 -24 -204 -57 -211 -50 -1 2 11 25 28 52 60 98 70 210 45 524 -10 125 -15
313 -14 580 0 242 -4 430 -11 485 -12 102 -35 196 -56 236 -16 32 -29 27 156
58 308 52 608 71 798 50z m-3454 -74 c59 -23 183 -17 441 20 389 56 580 41
637 -49 15 -25 18 -43 15 -91 -3 -33 -10 -73 -16 -89 l-11 -29 -35 36 c-48 49
-96 58 -226 41 -56 -7 -106 -17 -109 -21 -8 -9 -33 -229 -51 -448 -18 -213
-15 -607 5 -740 34 -220 77 -305 150 -291 39 8 78 49 98 107 l12 34 12 -30 c7
-17 13 -55 14 -86 0 -108 -78 -211 -208 -272 -86 -40 -207 -49 -279 -22 -147
56 -218 224 -230 540 -7 179 6 357 52 720 18 149 37 310 41 359 l7 89 -24 -7
c-50 -14 -234 -19 -291 -7 -95 20 -168 87 -168 155 1 43 32 108 66 135 l28 22
12 -29 c9 -21 25 -35 58 -47z m-1411 -1011 c26 -9 47 -19 46 -22 0 -4 -28 -20
-62 -37 -78 -38 -175 -132 -210 -205 -74 -154 -75 -318 -3 -489 89 -211 267
-362 525 -446 l54 -18 -24 -19 c-39 -31 -151 -85 -214 -103 -94 -28 -203 -18
-298 28 -43 20 -105 56 -140 80 -108 75 -165 87 -207 42 -30 -32 -38 -134 -20
-271 15 -126 14 -298 -4 -399 -14 -79 -62 -257 -76 -283 -4 -8 -10 31 -13 86
-4 55 -18 183 -32 284 -91 657 -84 965 30 1314 118 360 379 545 648 458z
m6822 15 c183 -34 343 -191 430 -423 114 -302 137 -667 75 -1151 -11 -82 -29
-226 -40 -320 -11 -93 -23 -190 -27 -215 l-6 -45 -18 75 c-35 145 -43 267 -28
428 8 81 14 199 14 262 0 133 -14 172 -70 196 -47 19 -99 2 -208 -70 -147 -97
-185 -111 -307 -111 -96 0 -111 3 -180 33 -41 17 -101 49 -132 70 l-58 38 58
18 c390 122 632 457 571 792 -27 147 -129 284 -260 347 -37 17 -68 34 -68 37
-1 3 23 13 52 23 46 15 73 20 128 26 8 0 42 -4 74 -10z m-2015 -1118 c223 -6
504 -14 625 -18 255 -8 271 -1 -175 -77 -719 -123 -1263 -171 -1955 -170 -731
0 -1303 54 -2120 201 l-210 38 155 6 c85 4 409 12 720 18 311 7 603 13 650 15
189 6 1932 -4 2310 -13z m-3527 -220 c15 -6 32 -22 37 -36 6 -16 10 -283 10
-700 l0 -674 -22 -16 -23 -15 -5 682 c-5 708 -6 717 -46 732 -21 8 -536 8
-557 0 -9 -3 -24 -26 -33 -51 -16 -40 -17 -91 -11 -586 3 -298 2 -621 -2 -717
-10 -228 -12 -232 -179 -403 -70 -73 -149 -164 -174 -202 -63 -96 -100 -206
-99 -301 0 -93 5 -110 59 -224 44 -92 45 -98 50 -210 l4 -115 -20 25 c-38 49
-55 96 -63 179 -7 61 -18 104 -44 160 -47 106 -62 199 -48 299 23 153 100 281
284 467 87 89 136 147 151 180 l23 50 5 715 c4 550 8 720 18 737 20 36 89 42
422 37 130 -1 248 -8 263 -13z m4736 -9 c14 -10 29 -34 34 -53 6 -20 6 -150 1
-324 -17 -564 -10 -737 38 -1020 39 -233 91 -427 195 -730 174 -509 176 -514
164 -543 -7 -15 -22 -40 -35 -55 l-23 -28 -33 113 c-18 62 -57 190 -87 283
-216 674 -275 976 -290 1486 -5 168 -3 222 6 233 7 9 12 32 11 53 -1 21 0 52
1 68 1 17 3 128 3 247 1 284 24 259 -246 266 -112 2 -243 1 -292 -3 -132 -11
-126 3 -126 -273 0 -159 3 -231 12 -240 8 -8 8 -15 -2 -26 -8 -11 -10 -27 -4
-53 15 -69 8 -528 -10 -668 -19 -150 -67 -415 -75 -415 -3 0 -17 9 -30 19
l-25 19 27 138 c41 210 57 346 68 598 7 160 7 232 0 239 -7 7 -11 118 -11 322
0 299 1 312 20 333 35 37 86 41 439 36 221 -3 247 -5 270 -22z m-5001 -405 l2
-318 -52 3 -53 3 -2 305 c-2 168 -1 311 2 318 3 9 20 12 52 10 l48 -3 3 -318z
m1345 234 c58 -23 60 -41 55 -511 -6 -460 -4 -479 48 -582 32 -63 111 -141
190 -187 77 -45 124 -80 124 -91 0 -5 -11 -17 -24 -25 -23 -15 -28 -13 -112
32 -112 61 -190 136 -231 223 -61 130 -62 142 -53 740 6 388 9 374 -92 385
-35 4 -168 5 -295 3 -226 -3 -233 -4 -255 -26 l-23 -23 2 -327 c2 -180 3 -381
4 -447 3 -250 -74 -407 -250 -505 -121 -68 -168 -103 -195 -144 -25 -37 -27
-48 -23 -111 3 -54 13 -88 41 -148 42 -89 58 -176 77 -428 17 -215 19 -1471 3
-1476 -6 -2 -21 5 -34 15 l-23 19 -2 544 c-3 555 -14 844 -40 1049 -19 144
-21 153 -80 273 -62 125 -68 176 -31 252 33 66 77 106 222 195 165 103 245
199 270 326 5 22 8 240 9 486 l0 447 23 23 c18 18 38 24 95 30 113 10 568 2
600 -11z m2415 0 c54 -29 53 -12 61 -663 7 -603 7 -603 30 -655 32 -73 84
-116 216 -179 124 -60 162 -94 201 -179 35 -76 43 -151 56 -512 l12 -332 -32
-61 -32 -60 0 -494 c0 -272 -3 -502 -6 -511 -4 -9 -24 -25 -45 -36 l-39 -19 0
552 0 553 28 40 27 40 3 260 c4 372 -14 515 -80 611 -28 41 -98 86 -168 109
-126 41 -162 74 -202 185 -23 65 -23 68 -28 677 l-5 612 -23 23 c-22 22 -30
23 -238 27 -118 2 -243 0 -278 -4 -111 -11 -100 54 -107 -637 -5 -522 -8 -612
-23 -668 -16 -64 -72 -161 -91 -159 -5 0 -28 8 -49 18 l-40 17 32 23 c18 12
44 43 59 68 51 87 53 113 53 716 0 676 -8 635 125 648 110 12 557 4 583 -10z
m-4542 -94 l24 -28 1 -327 c0 -180 2 -340 4 -357 1 -16 3 -189 5 -383 l1 -353
-26 -35 c-14 -19 -27 -34 -28 -34 -1 0 -1 323 1 717 3 766 3 776 -45 794 -36
13 -436 12 -467 -3 -14 -6 -29 -20 -33 -32 -4 -12 -7 -345 -7 -741 2 -717 2
-720 -17 -676 -39 89 -40 108 -32 782 8 620 9 658 27 677 25 29 39 30 319 28
l249 -1 24 -28z m6821 10 c16 -16 19 -51 24 -405 5 -348 8 -396 27 -481 30
-127 28 -202 -4 -301 -15 -44 -29 -80 -33 -80 -3 0 -4 42 -3 93 2 52 -3 166
-12 254 -11 110 -16 263 -16 484 0 192 -4 339 -10 361 -19 67 -25 68 -303 68
-307 0 -291 8 -301 -151 -4 -57 -6 -210 -5 -339 2 -167 -3 -292 -16 -432 -17
-177 -17 -213 -5 -366 7 -93 9 -187 6 -208 -10 -50 -48 -123 -79 -152 l-25
-23 -11 32 c-10 30 -9 37 19 76 41 56 46 109 26 261 -22 173 -20 238 14 417
30 156 30 159 30 509 0 399 -1 392 73 399 23 3 164 4 314 3 247 -1 274 -3 290
-19z m-3417 -7 c69 -19 67 0 74 -640 4 -316 11 -603 15 -637 9 -75 23 -89 136
-134 149 -60 216 -100 296 -179 112 -111 166 -235 190 -441 13 -119 3 -374
-41 -1044 -17 -247 -36 -559 -43 -692 -7 -134 -17 -247 -22 -252 -6 -5 -30
-12 -54 -16 l-44 -7 6 233 c7 255 28 520 81 1014 66 606 67 640 26 799 -57
224 -177 364 -437 511 -65 37 -128 76 -140 88 l-23 20 0 653 c0 627 -1 653
-19 675 l-19 24 -326 0 c-325 0 -325 0 -348 -23 l-23 -23 2 -650 2 -650 -22
-23 c-12 -12 -70 -49 -127 -81 -146 -81 -217 -133 -293 -215 -108 -117 -169
-263 -186 -449 -8 -87 4 -237 73 -891 31 -294 53 -582 62 -817 8 -205 12 -195
-68 -173 -36 10 -37 11 -42 73 -3 34 -8 127 -11 207 -3 80 -19 341 -35 580
-72 1075 -68 1220 35 1425 70 138 174 228 349 300 56 23 116 50 134 59 66 34
62 1 70 689 7 615 7 626 28 654 12 15 34 31 50 34 48 11 656 10 694 -1z
m-3485 -802 c-3 -505 -9 -784 -15 -786 -6 -2 -10 -11 -9 -20 0 -11 2 -12 6 -4
2 6 9 12 14 12 6 0 5 -9 -2 -22 l-11 -21 -14 24 c-9 16 -13 64 -14 148 0 108
-2 122 -16 117 -9 -3 -26 -6 -38 -6 -23 0 -23 0 -19 -117 3 -65 11 -141 17
-168 12 -46 7 -95 -9 -95 -4 0 -3 4 0 10 3 6 -1 7 -10 4 -14 -6 -14 -9 0 -30
13 -21 13 -23 0 -18 -17 7 -21 -11 -5 -21 14 -8 13 -52 -2 -61 -7 -4 -8 -3 -4
5 14 21 -3 61 -25 61 -24 0 -37 -29 -18 -41 9 -5 16 -3 21 9 7 14 7 14 5 -3
-3 -29 -41 -27 -45 3 -2 13 -9 21 -15 19 -18 -6 -9 -37 16 -58 27 -22 10 -25
-20 -4 -12 8 -23 25 -25 38 -2 12 -9 23 -15 23 -7 1 -19 2 -27 3 -46 4 -56 57
-32 176 22 111 31 262 14 262 -7 0 -30 3 -50 7 l-38 7 0 -124 c0 -94 -4 -132
-16 -156 -9 -18 -18 -31 -19 -29 -6 6 -13 1627 -7 1633 3 3 101 5 219 5 l213
0 -5 -782z m6820 727 l0 -40 -102 1 c-56 0 -100 -3 -97 -7 7 -12 -38 -21 -77
-16 -31 3 -30 4 9 5 27 1 41 6 37 12 -4 7 -51 10 -118 9 -160 -2 -149 -5 -145
38 4 49 5 49 277 43 l216 -5 0 -40z m-3376 -75 c-2 -75 -5 -90 -18 -90 -12 0
-13 2 -3 8 7 5 10 16 6 26 -6 14 -21 16 -118 14 l-111 -3 -3 -57 c-2 -32 -7
-58 -12 -58 -6 0 -11 8 -11 18 -1 9 -3 28 -4 42 -2 14 1 32 6 41 8 15 -7 17
-162 18 -94 1 -175 4 -180 7 -10 6 -12 107 -2 117 3 4 143 7 310 7 l304 0 -2
-90z m1856 -102 c-4 -11 28 -13 172 -11 167 3 277 -7 295 -25 4 -4 -21 -6 -57
-4 -51 3 -66 1 -71 -11 -7 -20 -226 -25 -222 -5 2 9 -16 14 -67 16 -75 2 -101
-7 -92 -32 5 -13 34 -15 222 -13 118 1 215 -1 215 -5 0 -5 -83 -8 -185 -8
l-185 0 0 -108 c0 -60 -3 -171 -7 -248 -7 -120 -8 -131 -14 -79 -3 33 -3 80 1
105 9 54 3 284 -8 287 -4 2 -6 -99 -4 -225 4 -362 4 -373 -3 -429 -8 -64 -20
-70 -22 -10 -1 33 1 38 8 22 7 -15 8 -12 4 13 -3 19 0 52 5 75 6 25 7 63 2 92
-8 48 -8 45 -16 -55 -10 -116 -13 -149 -22 -199 -5 -23 -3 -32 4 -27 6 4 9 13
5 21 -4 11 -1 13 11 9 10 -4 15 -12 12 -20 -3 -7 -8 -30 -11 -51 -17 -100 -27
-143 -34 -138 -5 2 -7 28 -5 57 l3 53 -9 -48 c-5 -27 -12 -52 -16 -55 -4 -4
-4 11 0 33 48 290 66 482 66 728 0 118 4 187 10 187 6 0 10 -4 10 -10 0 -5 4
-10 10 -10 22 0 -4 28 -30 34 -21 4 -31 13 -36 31 -7 28 12 59 31 51 7 -2 10
6 7 27 -5 29 -4 30 12 15 9 -9 14 -22 11 -30z m477 -16 c25 -18 23 -59 -3 -73
-22 -11 -22 -13 -16 -238 3 -124 11 -275 17 -336 10 -108 45 -343 56 -377 4
-14 0 -18 -19 -18 -21 0 -25 6 -31 41 -4 23 -5 44 -2 46 2 2 7 -14 11 -36 8
-46 22 -56 19 -13 -1 15 -2 41 -3 57 -1 24 -3 27 -12 15 -8 -11 -9 -4 -6 28 3
23 1 42 -3 42 -4 0 -6 19 -3 43 3 31 2 38 -6 27 -6 -8 -11 -33 -12 -55 -1 -30
-5 -21 -14 40 -8 44 -13 98 -13 120 0 54 5 34 13 -49 7 -74 25 -75 24 -1 0 27
-3 34 -8 22 -3 -10 -7 12 -7 50 1 105 -14 170 -35 158 -5 -4 -9 69 -9 184 0
105 3 191 8 191 4 0 6 -59 4 -131 -2 -72 1 -128 6 -126 13 9 16 287 2 287 -6
0 -8 -4 -5 -10 3 -5 2 -10 -3 -10 -5 0 -12 11 -14 25 -5 22 -2 25 23 25 19 0
32 7 40 22 10 18 8 24 -10 39 -11 9 -21 25 -20 36 0 14 2 15 6 3 4 -8 14 -21
25 -28z m1056 -29 c3 -22 1 -22 -145 -25 -81 -2 -199 -2 -260 0 -101 2 -113 5
-113 21 0 10 2 20 4 22 2 2 118 4 258 4 l253 0 3 -22z m-4900 -121 c18 -12 32
-69 32 -134 l0 -58 -75 0 -75 0 0 59 c0 61 20 125 42 134 20 8 62 7 76 -1z
m2477 -2 c3 -5 2 -10 -2 -10 -5 0 -18 -7 -29 -15 -19 -15 -19 -16 1 -14 51 4
63 -1 58 -21 -3 -11 -10 -20 -16 -20 -6 0 -18 -6 -26 -14 -13 -12 -16 -37 -13
-150 l3 -136 25 0 c19 0 24 -5 24 -24 0 -19 -4 -22 -25 -18 -22 4 -25 1 -25
-24 0 -27 19 -73 20 -48 0 6 7 11 15 11 8 0 15 -9 15 -19 0 -13 8 -18 30 -18
40 0 46 2 42 16 -1 6 7 14 18 17 27 7 30 69 3 65 -12 -2 -19 4 -21 20 -3 17 2
22 17 22 20 0 21 6 23 118 1 64 5 -9 9 -163 13 -497 44 -563 311 -659 93 -34
140 -114 158 -274 5 -48 10 -203 10 -344 l0 -257 -32 -51 c-27 -44 -31 -59
-30 -115 l1 -65 -72 0 c-61 0 -74 3 -85 20 -7 11 -18 20 -25 20 -8 0 -8 -3 2
-9 8 -5 22 -34 31 -64 15 -49 16 -84 8 -338 -5 -156 -10 -357 -11 -446 l-1
-163 -28 0 c-25 0 -28 3 -28 35 l0 35 -236 0 c-130 -1 -237 0 -239 2 -1 2 0
18 2 36 l5 32 250 0 c138 -1 253 1 256 4 3 3 -6 6 -19 6 l-24 0 1 314 c1 173
-1 326 -3 340 l-5 26 -245 0 -245 0 6 23 c3 12 6 28 6 35 0 9 55 12 239 12
l239 0 6 34 c5 25 13 36 29 39 12 2 -102 5 -254 6 -152 0 -278 3 -281 6 -2 3
-3 18 0 34 l4 28 216 2 c119 1 219 4 221 7 2 2 -73 4 -167 4 -137 0 -172 3
-172 13 0 11 52 15 257 21 157 4 262 11 270 18 15 12 17 37 4 57 -7 11 -20 11
-72 2 -35 -6 -152 -11 -259 -12 l-194 -1 -1 29 c0 27 -2 28 -47 27 l-48 -2 0
162 c0 168 -9 253 -36 371 -20 86 -74 200 -120 253 -19 22 -34 42 -34 45 0 4
55 20 105 31 11 2 6 4 -13 5 -20 1 -57 17 -94 41 -33 21 -66 41 -72 43 -7 3
-5 11 5 23 9 10 19 30 23 44 6 24 5 24 -7 -2 -16 -34 -57 -78 -73 -78 -6 0
-17 6 -23 13 -8 11 -7 18 7 30 55 50 92 183 101 361 6 122 7 131 26 131 12 0
22 -8 25 -20 6 -20 15 -21 93 -16 9 0 17 7 17 15 0 19 32 30 42 14 4 -8 8 4 8
30 0 38 -2 42 -25 42 -18 0 -25 5 -25 20 0 15 7 20 25 20 24 0 25 2 25 71 l0
70 -25 -28 c-13 -15 -25 -22 -25 -15 0 7 11 23 23 35 18 17 25 37 31 86 3 36
12 69 19 74 7 5 -5 7 -30 5 -24 -2 -43 -1 -44 2 0 3 -2 13 -4 23 -3 14 4 17
37 17 40 0 41 1 24 19 -13 15 -14 20 -4 24 24 10 157 7 163 -3z m-3355 -447
l5 -338 -46 -46 c-49 -49 -93 -117 -104 -159 -5 -21 -12 -26 -38 -25 -44 2
-53 -2 -54 -25 -2 -17 5 -20 41 -20 43 0 43 0 49 -41 3 -23 28 -89 56 -147 59
-121 78 -208 85 -389 2 -65 2 -103 0 -85 -5 30 -8 32 -45 32 -37 0 -39 -2 -39
-30 0 -17 -5 -30 -12 -30 -7 0 -152 -2 -321 -5 l-308 -6 -35 36 c-32 34 -34
35 -34 13 0 -13 8 -39 18 -58 l17 -35 100 0 c356 0 586 -6 580 -15 -4 -6 13
-10 44 -10 50 0 51 -1 51 -30 l0 -30 -362 0 c-322 0 -363 -2 -380 -17 -16 -14
-18 -34 -18 -180 l0 -164 -25 28 -25 28 6 -57 c3 -32 4 -58 1 -58 -2 0 -14 15
-28 33 -23 30 -24 41 -30 212 l-5 180 -47 93 c-83 167 -84 265 -6 419 49 95
83 136 225 278 172 171 174 181 174 650 0 182 2 334 4 336 2 2 116 3 253 2
l248 -1 5 -339z m5770 297 c0 -22 -5 -31 -22 -35 -13 -3 -122 -4 -242 -3 -189
3 -220 5 -229 19 -6 9 -7 24 -4 33 6 14 34 16 252 16 l245 0 0 -30z m-3594
-31 c8 -15 14 -42 14 -59 0 -27 3 -30 29 -30 22 0 28 -4 26 -17 -2 -10 -4 -28
-4 -40 -1 -19 -7 -23 -31 -23 -26 0 -30 -4 -30 -27 l0 -28 -90 3 c-88 3 -90 4
-90 28 0 19 -5 24 -25 24 -22 0 -25 4 -25 40 0 36 3 40 25 40 18 0 25 5 25 20
0 11 5 20 10 20 6 0 10 11 10 24 0 36 36 57 93 54 42 -1 50 -5 63 -29z m-1363
-50 c4 -13 10 -18 17 -14 9 6 9 9 0 15 -7 4 3 10 25 14 20 4 39 5 41 3 3 -2 9
-65 14 -138 11 -147 19 -195 30 -165 3 10 6 -8 7 -40 1 -32 6 -60 12 -62 6 -2
8 -8 5 -14 -4 -6 -10 -5 -15 3 -4 7 -11 10 -15 6 -4 -4 1 -15 10 -26 11 -12
14 -21 7 -26 -6 -3 -11 2 -11 11 0 14 -3 15 -12 6 -7 -7 -19 -12 -27 -11 -11
0 -10 3 4 9 18 8 18 9 -5 8 -40 -1 -75 -12 -77 -25 -2 -7 3 -13 10 -13 8 0 7
-4 -3 -10 -19 -13 -90 -2 -112 17 -18 16 -31 53 -17 53 5 0 9 -7 9 -16 0 -9 5
-12 13 -8 6 4 9 4 5 -1 -12 -13 12 -35 36 -34 17 1 17 2 4 6 -10 2 -18 9 -18
14 0 6 8 5 21 -1 11 -6 25 -9 32 -7 7 3 4 8 -8 12 -72 25 -68 19 -61 97 4 39
11 80 16 92 4 12 9 73 11 136 2 63 5 118 7 123 7 16 40 6 45 -14z m3685 -111
c-2 -37 0 -68 3 -68 13 0 25 26 24 52 0 15 3 24 8 21 4 -3 6 -11 3 -19 -3 -8
-1 -14 4 -14 10 0 14 14 11 38 -3 22 18 13 23 -10 3 -13 7 -89 11 -169 8 -219
20 -307 44 -327 14 -12 26 -49 41 -117 27 -131 78 -333 90 -365 6 -14 12 -34
14 -45 7 -35 46 -177 66 -240 34 -108 112 -437 130 -551 8 -50 8 -68 -2 -78
-24 -26 -88 -101 -102 -120 -11 -17 -14 -6 -20 90 -16 239 -73 474 -116 474
-6 0 -10 -4 -10 -10 0 -5 -7 -10 -16 -10 -12 0 -15 6 -10 26 5 19 -1 37 -23
71 -44 66 -55 133 -40 248 12 103 9 190 -15 355 -8 58 -16 122 -16 143 0 33 3
37 25 37 16 0 25 6 25 15 0 10 -10 15 -26 15 -24 0 -26 3 -22 32 3 18 1 46 -4
63 -4 16 -13 59 -18 95 -5 36 -12 76 -15 90 -5 22 -4 23 5 5 7 -14 8 6 4 70
-3 50 -10 94 -15 100 -5 5 -10 20 -10 35 -2 23 -2 23 -6 3 -2 -13 -11 -23 -19
-23 -8 0 -17 -6 -20 -14 -3 -8 -14 -16 -25 -19 -17 -5 -18 -3 -8 10 8 9 15 60
18 131 3 64 7 102 9 83 2 -19 2 -65 0 -103z m1277 -101 c16 -161 20 -320 6
-299 -4 7 -13 12 -20 10 -9 -2 -14 21 -16 84 -3 87 -21 320 -30 390 -4 32 -2
37 17 40 20 3 23 -2 26 -37 1 -22 9 -106 17 -188z m-452 186 c-1 -21 -10 -130
-19 -243 -8 -113 -14 -210 -12 -215 3 -11 -4 -15 -27 -15 -20 0 -20 97 0 280
8 74 15 156 15 183 0 42 2 47 23 47 20 0 22 -4 20 -37z m-4731 -7 c16 10 3
-219 -17 -291 -47 -171 -146 -291 -313 -379 -99 -53 -132 -83 -132 -124 0 -13
18 -64 40 -113 62 -137 84 -315 100 -784 9 -270 3 -1112 -9 -1192 -5 -34 -4
-53 2 -53 6 0 8 -3 4 -6 -3 -3 -13 -2 -22 3 -15 9 -17 72 -19 719 -4 924 -20
1122 -103 1301 -49 105 -50 159 -4 207 18 19 56 46 84 62 274 147 347 279 368
664 2 24 2 24 6 2 3 -13 9 -19 15 -16z m508 -263 c11 -42 33 -101 48 -132 37
-76 130 -168 225 -221 74 -42 76 -45 55 -56 -20 -11 -31 -8 -87 22 -92 51
-137 90 -192 168 -58 82 -92 181 -108 311 -16 130 -15 179 4 171 10 -4 15 1
16 17 1 12 6 -29 10 -91 4 -62 17 -147 29 -189z m4454 250 c8 -16 15 -22 16
-15 1 32 18 -2 28 -55 18 -92 42 -289 42 -343 l0 -49 -111 0 -112 -1 6 158 c3
111 10 172 22 207 10 28 18 55 20 60 9 42 26 65 49 65 17 0 30 -9 40 -27z
m-3724 -179 c0 -19 4 -25 15 -20 9 3 15 0 15 -8 0 -17 35 -48 43 -39 4 3 7 0
7 -9 0 -8 9 -23 21 -34 l21 -19 -3 70 c-4 69 -4 70 21 72 14 0 27 2 30 3 18 8
180 6 180 -2 0 -6 7 -7 16 -4 9 4 24 4 33 1 14 -4 16 -29 13 -219 l-3 -214 32
-26 c29 -25 34 -56 9 -56 -6 0 -9 4 -6 9 3 5 -1 14 -10 21 -13 12 -14 6 -9
-51 9 -91 2 -98 -122 -113 -56 -6 -99 -8 -97 -4 3 4 -7 8 -21 8 -39 0 -84 27
-91 55 -3 14 -1 69 4 123 6 53 14 143 17 200 5 103 5 103 -22 127 -20 16 -30
20 -36 12 -5 -8 -7 -7 -5 3 3 16 -34 70 -47 70 -4 0 -4 -98 0 -218 7 -214 7
-220 -15 -268 -13 -27 -22 -53 -21 -59 2 -5 -1 -7 -5 -3 -4 4 -20 -2 -36 -13
-25 -18 -27 -23 -16 -37 11 -15 11 -15 -4 -4 -14 11 -26 8 -78 -21 -34 -20
-57 -38 -51 -41 6 -4 11 -12 11 -19 0 -6 -6 -2 -14 8 -12 17 -16 16 -74 -19
-34 -20 -65 -42 -68 -48 -4 -6 -3 -8 4 -4 6 3 14 2 17 -4 4 -6 16 -8 28 -5 19
5 20 5 4 -5 -9 -6 -23 -8 -30 -3 -6 4 -19 9 -28 10 -19 3 -144 -124 -162 -165
-6 -15 -15 -30 -20 -33 -5 -4 -10 -18 -10 -32 -1 -14 -5 -23 -8 -21 -4 2 -17
-33 -29 -79 -32 -118 -29 -248 15 -647 40 -370 74 -703 75 -737 0 -13 5 -23
11 -23 6 0 35 -26 64 -57 40 -43 50 -59 38 -62 -9 -1 -21 5 -26 15 -10 17 -11
17 -18 -1 -6 -17 -8 -16 -8 8 -1 15 -5 27 -11 27 -5 0 -10 7 -10 16 0 8 -4 13
-9 9 -6 -3 -15 3 -21 12 -9 14 -10 14 -7 2 11 -34 27 -577 18 -601 -4 -11 -12
-13 -27 -8 -20 8 -21 15 -23 172 -2 237 -28 592 -71 975 -34 295 -70 666 -70
714 0 77 29 218 60 293 39 92 115 192 193 254 34 27 116 80 182 117 119 66
167 102 187 140 7 12 10 111 9 277 l-2 258 25 0 c21 0 26 -5 26 -26z m550
-242 c5 -244 6 -262 26 -289 20 -27 45 -43 242 -159 199 -116 304 -260 348
-475 23 -112 16 -245 -35 -709 -65 -591 -91 -928 -91 -1182 l0 -128 -25 0 -25
0 0 153 c0 239 39 752 90 1172 19 161 50 491 50 541 0 179 -67 353 -179 463
-75 74 -181 144 -204 135 -8 -3 -18 -1 -22 5 -3 7 0 8 9 5 9 -3 16 -3 16 0 0
3 -28 20 -62 37 l-61 31 61 -57 c34 -31 62 -61 62 -66 0 -21 -24 -5 -72 46
-27 30 -55 52 -61 48 -5 -3 -7 -1 -4 4 8 13 -20 26 -35 16 -7 -4 -8 -1 -4 6 5
7 15 10 25 7 9 -3 3 5 -13 18 l-29 24 -35 -34 c-19 -19 -43 -34 -54 -34 -14 0
-7 11 28 45 39 37 45 47 35 59 -7 9 -21 18 -31 21 -19 6 -35 34 -25 44 3 3 10
-1 15 -9 6 -10 10 83 10 251 0 146 3 268 6 271 3 3 13 5 22 4 15 -3 18 -29 22
-264z m3072 -59 c-10 -4 -9 -8 4 -18 12 -8 17 -26 17 -56 0 -24 2 -33 4 -20 3
13 15 32 26 42 18 15 19 18 5 19 -9 0 -19 -6 -21 -12 -3 -8 -6 -6 -6 5 -1 13
7 17 39 17 27 0 43 5 46 15 4 8 16 15 28 14 20 0 20 -1 1 -9 -19 -8 -19 -9 3
-9 12 -1 22 4 22 11 0 6 3 9 6 5 7 -7 6 -250 -2 -293 -4 -25 -11 -32 -27 -31
-12 1 -32 -2 -44 -6 -16 -6 -23 -3 -26 10 -4 14 -5 13 -6 -4 -1 -19 -7 -23
-33 -23 l-32 0 34 -35 c48 -50 31 -44 -22 8 l-43 42 -1 168 c-1 164 -1 167 20
166 11 0 15 -3 8 -6z m-160 -28 c12 -16 10 -127 -3 -120 -6 4 -8 13 -5 21 3 7
1 16 -4 19 -19 12 -10 -35 10 -52 26 -22 27 -108 4 -202 -16 -63 -21 -72 -55
-110 -11 -12 -13 -24 -8 -34 12 -20 -41 -60 -74 -55 -25 3 -30 30 -6 33 40 6
58 17 61 38 2 12 9 21 16 20 6 -2 12 1 12 5 0 22 -14 17 -45 -16 -40 -43 -48
-39 -9 4 14 16 38 54 52 84 25 50 27 65 26 171 -1 64 -4 137 -8 163 -7 42 -5
47 11 44 10 -2 21 -7 25 -13z m-4195 -5 c15 -6 53 -37 83 -68 30 -31 75 -73
99 -93 l45 -35 -40 -24 c-21 -13 -58 -41 -81 -62 l-43 -38 -212 0 c-117 0
-223 3 -235 6 -23 6 -33 34 -12 34 5 0 8 -4 5 -8 -9 -15 108 0 134 16 24 16
23 17 -64 24 -86 6 -117 11 -150 24 -9 3 -16 2 -16 -4 0 -9 15 -16 70 -32 22
-7 21 -8 -11 -9 -20 0 -42 5 -48 13 -7 8 -22 12 -34 10 -13 -2 -16 -1 -7 2 24
11 28 23 25 78 -2 50 -1 52 24 51 14 -1 37 5 51 12 41 21 151 52 166 46 8 -3
21 0 28 7 10 8 43 10 103 6 66 -4 82 -2 63 5 -14 6 -86 13 -160 16 -146 5
-160 7 -160 23 0 14 339 13 377 0z m1306 -460 c37 -11 73 -18 80 -14 6 4 9 3
5 -1 -7 -7 80 -65 96 -65 3 0 3 9 1 20 -2 11 0 20 6 20 5 0 7 -10 5 -22 -2
-17 12 -39 53 -83 31 -33 58 -59 61 -58 3 1 6 -6 7 -15 1 -9 11 -44 23 -77 21
-58 22 -70 16 -330 -3 -148 -17 -418 -30 -600 -29 -371 -30 -407 -16 -385 7
11 10 11 10 2 0 -7 10 -26 22 -42 15 -21 19 -33 12 -40 -15 -15 -47 -1 -34 15
7 8 4 17 -10 30 -20 18 -20 17 -20 -22 0 -23 -4 -119 -9 -214 -6 -96 -13 -257
-16 -359 -4 -101 -7 -186 -9 -187 -9 -10 -356 -35 -501 -36 l-179 -2 -9 42
c-5 28 -14 44 -27 48 -11 4 -20 12 -20 20 0 13 -10 14 -195 30 l-70 7 3 -55 4
-55 45 -6 c25 -3 63 -6 84 -6 22 0 39 -4 39 -8 0 -7 -260 13 -286 22 -8 3 -10
62 -6 198 6 253 -20 753 -58 1113 -6 50 -13 120 -16 158 l-7 67 -44 22 c-61
31 -116 94 -143 164 -29 77 -25 214 9 285 30 64 124 159 157 159 18 0 55 56
48 73 -3 8 -1 18 5 22 7 4 8 0 4 -11 -4 -12 8 -6 35 16 48 38 51 44 20 34 -27
-8 -23 -2 11 16 15 8 21 8 17 1 -10 -15 -6 -14 60 15 40 17 68 24 88 20 20 -4
45 2 80 19 73 35 196 65 265 65 34 0 63 5 67 11 11 18 187 4 267 -21z m-1726
-10 c-1 -11 -7 -20 -14 -20 -23 0 -24 -20 -1 -29 l23 -9 -28 -11 c-16 -6 -40
-11 -53 -11 -21 0 -24 -3 -19 -22 6 -16 4 -20 -9 -15 -8 3 -18 1 -22 -5 -5 -7
4 -9 27 -4 19 4 87 10 151 13 l117 5 -3 48 c-2 41 0 46 11 34 10 -9 12 -25 7
-49 -4 -23 -2 -35 5 -35 6 0 14 14 18 30 3 17 10 33 15 36 17 11 19 -3 3 -32
-8 -16 -15 -35 -15 -42 0 -8 -8 -10 -23 -7 -23 6 -269 -9 -342 -21 l-40 -7 40
38 c28 25 34 35 20 32 -11 -3 -35 -8 -52 -12 -36 -7 -43 -21 -15 -28 9 -3 4
-5 -13 -4 -25 2 -31 -2 -33 -22 -3 -15 0 -21 8 -16 6 4 9 13 6 20 -3 8 2 11
15 8 22 -6 26 -23 4 -23 -8 0 -15 -4 -15 -10 0 -5 -7 -10 -17 -10 -15 0 -15
-25 -9 -302 4 -167 9 -422 12 -568 l4 -264 25 -26 c23 -24 25 -34 25 -117 0
-49 3 -111 6 -136 l7 -45 101 101 101 102 -85 7 c-47 3 -94 4 -105 1 -18 -5
-18 -4 -3 11 13 12 22 14 43 6 35 -13 135 -13 135 1 0 5 -6 7 -12 3 -10 -5
-10 -3 0 7 10 11 48 14 167 14 153 0 155 0 155 -22 0 -12 4 -77 10 -145 17
-220 20 -271 24 -423 2 -96 1 -123 -3 -75 -6 66 -7 58 -9 -65 0 -92 2 -132 8
-117 5 12 7 28 4 36 -3 8 -1 23 5 33 8 14 10 -2 9 -62 0 -44 -3 -70 -5 -57 -2
12 -9 22 -15 22 -5 0 -8 -7 -4 -15 3 -9 0 -15 -9 -15 -21 0 -333 114 -373 136
-2 1 2 55 9 120 6 66 13 139 15 164 2 25 8 71 13 103 13 81 25 277 17 277 -9
0 -106 -99 -106 -108 0 -4 5 0 10 8 8 13 10 12 10 -4 0 -12 -5 -16 -15 -12
-17 6 -79 -49 -71 -63 3 -4 0 -13 -6 -21 -8 -12 -9 -12 -4 3 3 9 2 17 -3 17
-5 0 -11 -46 -15 -102 -8 -111 -30 -275 -39 -284 -3 -3 -18 1 -34 10 l-29 15
-2 318 c-2 302 -11 609 -32 1113 -5 124 -10 287 -10 362 0 140 2 150 43 175 7
5 17 18 22 29 8 17 15 20 30 13 19 -7 19 -8 -2 -8 -13 -1 -23 -5 -23 -10 0 -5
8 -8 18 -6 9 2 55 4 102 5 79 1 83 2 60 15 -16 9 -20 15 -10 16 8 1 -1 5 -20
9 -29 6 -23 7 28 7 34 0 65 3 69 7 10 10 12 7 10 -14z m274 -178 c22 -3 29
-10 29 -27 l0 -22 -230 -5 c-274 -5 -268 -3 -250 -96 15 -73 8 -112 -20 -112
-19 0 -20 7 -20 109 0 75 4 112 13 119 10 9 98 24 207 36 46 5 235 3 271 -2z
m-127 -317 c11 0 21 -6 24 -14 3 -9 0 -11 -8 -6 -10 6 -12 4 -7 -8 16 -41 17
-83 4 -101 -15 -20 -37 -15 -37 9 0 8 5 17 12 21 8 5 9 2 5 -9 -3 -10 -2 -17
3 -17 13 0 13 52 0 85 -17 45 -38 16 -32 -44 2 -26 0 -51 -5 -54 -6 -4 -10 11
-9 36 1 52 -11 88 -23 68 -5 -7 -14 -10 -20 -7 -15 10 -14 29 2 20 9 -5 9 -4
0 6 -14 15 -43 6 -43 -14 0 -8 13 -17 30 -21 37 -8 55 -37 41 -64 -6 -10 -16
-21 -23 -24 -18 -6 -58 10 -58 24 0 8 -6 7 -17 -3 -10 -9 -30 -16 -45 -16 -24
0 -27 5 -30 37 -2 20 2 44 7 54 7 13 6 20 -5 27 -12 8 -12 10 3 16 30 11 67
-4 67 -29 1 -29 20 -52 45 -52 23 0 27 -26 6 -33 -10 -3 -12 0 -7 14 6 15 5
17 -5 7 -17 -17 1 -36 27 -31 13 2 19 12 19 28 0 20 -6 26 -27 28 -56 7 -64
72 -8 72 16 0 32 -5 35 -10 4 -6 12 -4 21 5 9 8 21 12 27 8 7 -4 21 -7 31 -8z
m3805 -43 c37 -34 52 -62 35 -62 -4 0 -24 16 -45 35 -22 19 -44 35 -49 35 -25
0 -20 -32 9 -65 17 -20 31 -39 31 -44 0 -23 -18 -18 -51 15 -24 23 -43 34 -53
31 -26 -10 -19 -36 20 -74 25 -26 32 -39 24 -47 -8 -8 -23 2 -56 36 -46 49
-55 79 -28 100 9 7 30 28 47 46 40 42 66 41 116 -6z m-4122 -164 c16 -29 17
-54 13 -213 -6 -254 -6 -353 1 -359 3 -3 111 -7 240 -10 129 -2 234 -5 234 -5
0 -1 2 -12 3 -26 2 -25 2 -25 -91 -26 -214 -3 -392 12 -413 33 -14 15 -27 638
-13 638 5 0 16 -15 26 -32z m-497 0 c0 -21 0 -21 -16 -2 -13 16 -15 16 -10 2
4 -15 -1 -17 -48 -13 -29 2 -170 6 -313 10 -246 6 -262 5 -267 -12 -2 -10 -6
-123 -8 -250 -2 -128 -6 -233 -9 -233 -17 0 -22 52 -27 278 l-5 242 352 0 351
0 0 -22z m-397 -265 c-21 -8 -15 -20 12 -25 14 -3 25 -2 25 3 0 4 9 11 20 14
20 6 87 -31 75 -43 -3 -3 -11 0 -17 6 -7 7 -16 12 -22 12 -5 0 1 -9 13 -19 21
-18 41 -19 66 -1 6 4 33 13 60 20 28 6 58 14 68 17 9 2 17 0 17 -6 0 -6 -7
-11 -15 -11 -16 0 -10 -29 9 -42 6 -4 -2 -8 -19 -8 -16 0 -47 -3 -67 -6 -33
-6 -38 -10 -38 -35 0 -15 5 -31 10 -34 6 -3 9 -16 9 -28 -1 -20 -2 -20 -6 -3
-3 11 -19 34 -37 52 l-31 33 -50 -13 c-27 -7 -70 -16 -95 -19 -40 -5 -46 -4
-46 13 0 14 10 21 39 25 21 4 41 4 44 1 4 -3 -3 -6 -15 -6 -12 0 -22 -4 -22
-8 0 -5 14 -7 31 -4 19 3 28 9 25 17 -3 8 7 15 25 19 16 3 29 11 29 17 0 6 -7
8 -15 5 -9 -3 -39 3 -67 14 -28 11 -55 17 -60 14 -4 -3 -8 0 -8 5 0 6 7 11 15
11 8 0 15 5 15 10 0 6 8 10 18 9 10 0 12 -3 5 -6z m-45 -227 c8 -5 11 -17 9
-28 -4 -15 -1 -18 13 -13 25 8 60 -11 60 -32 0 -15 -2 -15 -18 0 -25 23 -45
21 -71 -7 -18 -19 -22 -33 -19 -71 3 -54 21 -72 61 -61 20 5 28 14 33 40 9 50
-3 74 -39 85 -26 7 -29 10 -14 16 27 11 65 -20 73 -59 3 -19 4 -39 1 -44 -3
-4 7 -6 24 -4 23 3 29 9 29 30 0 20 -3 23 -12 14 -16 -16 -38 3 -38 34 0 27
32 64 55 64 31 0 65 -25 83 -60 13 -27 21 -34 29 -25 6 7 9 24 6 39 -6 29 -23
46 -23 22 0 -9 -4 -16 -10 -16 -5 0 -10 9 -10 20 0 15 7 20 25 20 20 0 25 -6
31 -35 7 -41 24 -47 24 -9 0 58 36 82 64 42 18 -26 3 -52 -26 -45 -22 6 -25
-18 -3 -27 9 -3 15 -18 15 -40 0 -21 6 -36 15 -40 19 -7 20 -32 1 -39 -22 -9
-36 14 -36 60 0 24 -4 43 -9 43 -13 0 -35 -30 -46 -63 -5 -17 -16 -32 -23 -35
-11 -3 -10 3 2 26 14 27 14 31 -1 43 -14 12 -15 12 -11 -1 3 -8 -1 -27 -8 -42
-13 -25 -18 -26 -78 -26 -45 1 -67 6 -70 15 -4 10 -10 9 -26 -7 -28 -28 -66
-26 -86 6 -20 29 -23 109 -6 126 15 15 16 42 2 33 -5 -3 -10 -1 -10 4 0 6 7
11 16 11 9 0 14 6 12 13 -3 6 -11 12 -19 12 -16 0 -26 -40 -28 -114 0 -32 -5
-51 -10 -45 -11 12 3 150 18 168 13 15 28 16 49 2z m4040 -62 c41 -28 17 -85
-33 -76 -6 1 -9 -28 -7 -77 4 -84 -13 -142 -48 -161 -15 -8 -18 -2 -23 48 -5
62 -38 138 -82 191 -25 29 -60 47 -38 19 23 -29 53 -132 53 -181 0 -60 -12
-77 -51 -77 -47 0 -76 49 -47 78 17 17 58 15 58 -3 0 -9 -9 -15 -21 -15 -12 0
-19 -5 -16 -12 2 -7 12 -13 23 -13 29 0 24 84 -11 165 -33 80 -36 103 -12 108
45 9 149 -108 163 -184 3 -19 10 -37 15 -40 13 -8 11 89 -2 142 -16 61 -1 91
51 103 3 0 16 -6 28 -15z m-343 -6 c34 -15 33 -51 -1 -67 -14 -6 -29 -9 -34
-6 -4 3 -2 -16 6 -42 26 -87 15 -193 -21 -193 -11 0 -12 5 -5 26 18 47 4 180
-21 209 -14 15 -10 47 8 67 19 21 33 22 68 6z m1364 -174 c0 -8 -131 -126
-192 -175 -26 -20 -28 -20 -25 -3 3 16 -4 19 -46 21 -30 1 -58 -4 -70 -13 -26
-18 -36 -18 -36 1 0 11 -12 15 -45 15 -25 0 -48 0 -52 0 -14 1 -20 44 -15 100
l4 55 239 4 c131 2 239 -1 238 -5z m-379 -193 c50 -41 89 -47 126 -20 28 22
28 22 9 1 -25 -26 -217 -172 -227 -172 -5 0 -8 38 -8 84 l0 84 38 -4 c20 -3
45 -6 55 -8 25 -6 21 6 -14 37 -41 36 -23 35 21 -2z m-485 -313 c-15 -49 -46
-61 -206 -78 -50 -5 -61 -8 -34 -9 l40 -2 -50 -19 c-27 -11 -59 -25 -70 -31
-11 -7 -63 -16 -115 -20 -53 -4 1 -5 120 -2 118 3 220 8 225 10 6 2 1 -2 -9
-11 -41 -33 -287 -129 -529 -206 l-28 -9 5 102 c2 56 5 104 5 107 1 3 23 3 50
2 l49 -4 4 42 c2 22 2 43 -1 46 -10 10 -90 3 -95 -8 -4 -7 -4 5 -1 27 3 22 5
48 5 57 0 22 26 24 368 26 l273 2 -6 -22z"/>
<path d="M10969 13066 c-4 -4 2 -29 12 -56 37 -97 49 -210 49 -457 l0 -233 28
6 c190 41 324 128 390 253 34 64 44 103 43 169 -1 137 -107 256 -266 297 -65
17 -246 31 -256 21z"/>
<path d="M9050 10955 c0 -2 11 -38 25 -78 32 -97 47 -281 38 -492 l-6 -165 27
0 c37 0 160 42 221 76 71 40 156 129 191 199 25 51 29 72 29 140 0 70 -4 87
-30 134 -68 123 -214 190 -412 191 -46 0 -83 -2 -83 -5z"/>
<path d="M4427 8194 c-4 -4 -7 -20 -7 -36 l0 -28 190 0 190 0 0 33 c0 29 -3
33 -29 35 -25 2 -30 -2 -33 -24 l-3 -27 -100 0 c-98 0 -100 1 -100 24 0 21 -5
24 -50 27 -28 2 -54 0 -58 -4z"/>
<path d="M4439 7853 c0 -290 2 -457 6 -461 2 -2 24 0 49 3 40 6 46 10 46 31 0
13 6 24 13 24 8 0 19 12 26 26 10 23 16 26 46 21 21 -4 35 -1 38 6 6 17 27
-39 27 -72 0 -26 4 -29 41 -35 23 -4 43 -5 45 -4 7 7 15 568 8 568 -4 0 -16
-8 -27 -17 -15 -13 -18 -14 -12 -3 5 8 17 21 27 28 13 10 18 24 16 45 -3 27
-7 31 -33 31 l-30 0 4 -197 3 -197 -107 0 c-61 0 -104 4 -101 9 8 13 -4 42
-15 35 -5 -3 -9 2 -9 11 0 9 4 14 9 11 14 -9 16 21 11 179 l-5 150 -37 3 -38
4 -1 -199z"/>
<path d="M5422 7648 l3 -193 68 -3 67 -3 -1 118 c0 76 3 119 10 121 6 2 11 21
11 42 0 32 4 39 29 50 16 6 39 9 50 5 12 -4 21 -2 21 4 0 6 4 11 9 11 22 0 33
-78 32 -209 l-2 -137 55 -2 55 -2 1 195 0 195 -205 0 -205 0 2 -192z"/>
<path d="M7762 6118 c-7 -7 -12 -18 -12 -25 0 -10 -9 -7 -29 8 -22 16 -36 19
-60 14 -62 -13 -93 -93 -71 -185 16 -67 46 -90 116 -90 33 0 54 -5 57 -12 2
-7 8 -9 13 -5 4 4 3 16 -2 25 -9 13 -23 16 -66 14 -51 -3 -57 -1 -81 28 -33
38 -36 106 -9 160 46 93 122 58 138 -65 12 -84 -47 -124 -110 -74 -21 16 -26
17 -26 5 0 -36 77 -59 120 -36 28 15 43 79 30 132 -12 54 -12 61 -1 53 5 -3
13 0 17 6 3 6 0 15 -7 20 -11 6 -10 9 4 15 9 3 14 10 11 15 -7 12 -18 11 -32
-3z"/>
<path d="M8009 6101 c-16 -16 -32 -43 -35 -60 -4 -17 -10 -31 -15 -31 -5 0 -5
-8 0 -17 6 -10 13 -31 16 -47 9 -44 57 -86 98 -86 48 0 82 29 74 62 -8 32 -36
44 -55 24 -16 -16 -10 -46 10 -46 10 0 10 2 -1 9 -16 10 -6 31 15 31 20 0 29
-27 15 -44 -36 -44 -112 -24 -135 35 -9 22 -16 40 -16 42 0 1 29 2 65 2 52 0
67 4 79 20 24 31 20 82 -9 110 -33 34 -70 32 -106 -4z m97 -6 c19 -19 24 -34
22 -58 -4 -42 -42 -62 -104 -52 -41 6 -44 8 -44 37 0 21 10 40 34 64 41 41 59
42 92 9z"/>
<path d="M8145 5785 c-27 -7 -106 -34 -175 -60 -69 -26 -150 -51 -180 -56 -77
-13 -143 4 -175 45 l-25 31 13 -40 c9 -25 27 -49 48 -64 31 -21 41 -23 114
-17 49 3 135 21 220 46 200 57 302 52 340 -19 l14 -26 1 32 c0 55 -28 110 -65
127 -39 19 -63 19 -130 1z"/>
<path d="M0 445 l0 -445 8000 0 8000 0 0 445 0 445 -8000 0 -8000 0 0 -445z
m674 251 c131 -77 184 -264 114 -406 -26 -52 -63 -89 -76 -75 -4 3 6 41 21 83
15 42 27 95 27 118 0 81 -74 183 -156 215 -44 16 -136 14 -174 -6 -88 -46
-136 -149 -111 -239 32 -117 145 -177 241 -128 103 52 107 208 5 242 -91 30
-165 -82 -95 -145 16 -15 22 -16 35 -5 9 7 14 18 12 24 -8 20 12 56 31 56 47
0 54 -77 11 -116 -27 -24 -99 -23 -137 2 -15 10 -29 18 -32 17 -3 -1 -6 6 -7
15 -1 9 -5 40 -9 69 -5 43 -3 58 17 92 52 93 194 108 266 30 41 -45 66 -117
60 -172 -15 -120 -116 -207 -241 -207 -155 0 -256 108 -256 274 0 186 125 300
321 293 72 -2 93 -7 133 -31z m574 -181 c2 -72 -2 -146 -7 -166 -17 -56 -52
-82 -111 -83 -43 -1 -54 3 -82 32 -31 30 -33 37 -33 100 0 51 5 73 20 94 37
49 108 66 120 28 7 -23 -10 -50 -30 -50 -28 0 -58 -36 -57 -69 2 -65 61 -93
102 -49 18 20 20 35 20 153 0 73 3 135 7 139 4 4 16 6 28 4 19 -3 20 -11 23
-133z m1602 54 c0 -28 0 -28 73 -31 l72 -3 0 -30 0 -30 -72 -3 -73 -3 0 -47
c0 -87 62 -127 86 -54 15 46 29 58 50 41 21 -17 14 -82 -13 -111 -44 -49 -122
-46 -154 6 -16 26 -19 51 -19 162 0 72 3 133 6 136 3 3 14 4 25 1 13 -4 19
-14 19 -34z m-1405 -59 c0 -16 -8 -29 -24 -36 -36 -18 -41 -32 -41 -115 0 -80
-13 -108 -45 -95 -12 4 -15 24 -15 94 0 110 11 145 53 166 45 22 72 17 72 -14z
m251 5 c35 -23 29 -54 -21 -109 -38 -40 -48 -46 -60 -36 -21 17 -19 42 5 68
25 26 25 32 2 32 -48 0 -72 -81 -36 -121 13 -14 31 -19 75 -19 73 0 89 -6 89
-35 0 -29 -16 -35 -96 -35 -59 0 -67 3 -101 34 -33 30 -37 39 -41 92 -3 50 0
64 20 94 13 19 35 41 48 48 29 15 82 9 116 -13z m298 -2 c35 -25 46 -63 46
-160 0 -65 -3 -85 -15 -89 -31 -12 -43 14 -44 93 -1 56 -6 81 -18 95 -22 24
-58 23 -83 -4 -39 -42 -17 -110 40 -122 27 -5 31 -10 28 -33 -2 -21 -9 -29
-28 -31 -36 -4 -89 33 -106 73 -54 131 72 257 180 178z m274 12 c19 -14 24
-14 47 1 38 25 92 9 123 -35 20 -32 22 -45 20 -130 -3 -95 -3 -96 -28 -96 -25
0 -25 2 -30 94 -4 75 -9 96 -22 105 -13 8 -23 8 -35 0 -15 -9 -19 -28 -21
-103 -2 -73 -6 -93 -19 -98 -27 -10 -40 23 -42 104 -2 79 -11 103 -40 103 -32
0 -41 -22 -41 -106 0 -85 -12 -113 -45 -100 -12 4 -15 25 -15 100 0 52 5 106
11 119 23 50 94 72 137 42z m467 -20 c0 -26 -4 -30 -30 -33 -37 -5 -45 -16
-45 -70 0 -48 -19 -100 -43 -120 -8 -7 -31 -16 -50 -19 -29 -4 -37 -2 -47 16
-14 28 2 51 36 51 31 0 44 27 44 92 0 81 36 120 105 115 26 -2 30 -6 30 -32z
m393 -103 c2 -116 1 -133 -14 -139 -32 -12 -44 24 -44 131 0 125 6 148 34 144
20 -3 21 -9 24 -136z m225 123 c26 -13 31 -13 50 0 46 32 111 7 136 -53 7 -16
11 -65 9 -118 -3 -88 -3 -89 -28 -89 -24 0 -25 2 -30 90 -5 97 -11 115 -39
115 -33 0 -41 -22 -41 -112 0 -71 -3 -90 -16 -95 -27 -10 -38 16 -44 104 -4
67 -9 88 -22 97 -13 8 -23 8 -35 0 -15 -9 -19 -28 -21 -97 -3 -89 -15 -116
-48 -103 -13 5 -15 22 -12 112 3 105 3 106 36 135 36 32 63 36 105 14z m455
-5 c19 -12 32 -28 32 -40 0 -31 -71 -111 -95 -108 -28 4 -30 33 -5 65 20 26
21 28 4 32 -21 4 -64 -42 -64 -68 0 -10 9 -30 21 -45 15 -20 30 -26 57 -26 48
0 65 -12 60 -41 -3 -21 -9 -24 -48 -27 -87 -7 -140 46 -140 138 0 62 22 103
64 124 42 21 75 20 114 -4z m373 -19 c16 -16 29 -39 29 -50 0 -17 -6 -21 -35
-21 -22 0 -38 6 -41 15 -9 24 -43 29 -65 9 -13 -12 -19 -30 -19 -60 0 -66 42
-96 77 -54 11 12 30 20 50 20 27 0 33 -4 33 -21 0 -11 -13 -34 -29 -50 -24
-23 -38 -29 -75 -29 -62 0 -94 17 -117 62 -23 46 -24 85 -3 138 20 49 53 69
117 70 41 0 53 -5 78 -29z m256 12 c72 -48 69 -199 -6 -237 -34 -18 -97 -21
-136 -6 -29 11 -64 78 -65 122 0 44 30 107 59 123 36 20 116 19 148 -2z m288
3 c17 -12 22 -12 39 0 32 22 99 18 122 -7 16 -18 20 -40 22 -135 l4 -114 -41
0 -40 0 -3 96 c-2 79 -6 99 -20 108 -14 8 -21 7 -34 -6 -14 -13 -17 -35 -16
-107 l1 -91 -40 0 -39 0 0 94 c0 107 -11 128 -55 108 -24 -11 -25 -15 -25
-107 l0 -95 -40 0 -40 0 0 130 0 131 50 -2 c27 -2 53 0 57 4 12 12 79 7 98 -7z
m9673 -23 c48 -66 -8 -168 -83 -149 -75 19 -94 128 -29 167 32 20 91 10 112
-18z m-1548 7 c28 -28 27 -98 0 -128 -16 -17 -32 -22 -70 -22 l-49 0 -3 85 -3
85 53 0 c39 0 57 -5 72 -20z m752 3 c23 -21 25 -99 2 -131 -20 -29 -79 -31
-94 -3 -16 31 -12 117 6 135 20 21 63 20 86 -1z m138 3 c0 -8 -12 -16 -27 -18
-14 -2 -28 -8 -30 -14 -2 -7 5 -10 20 -7 48 9 78 -65 41 -101 -19 -20 -78 -21
-93 -2 -20 24 -17 113 4 136 22 24 85 28 85 6z m148 -15 c2 -13 -1 -28 -7 -34
-6 -6 -5 -17 5 -32 11 -17 12 -29 5 -49 -9 -22 -17 -26 -48 -26 -21 0 -43 4
-50 8 -17 11 -27 59 -14 67 7 4 9 20 5 42 -8 43 5 54 61 51 34 -3 41 -7 43
-27z m266 7 c9 -12 16 -41 16 -63 0 -56 -22 -85 -65 -85 -19 0 -36 4 -39 8 -8
14 8 27 33 27 13 0 26 6 29 13 2 8 -7 12 -25 12 -37 0 -53 16 -53 55 0 40 16
55 56 55 23 0 38 -7 48 -22z m411 -24 c21 -72 28 -74 46 -14 14 47 20 55 43
58 l26 3 0 -85 c0 -79 -2 -86 -20 -86 -17 0 -20 7 -21 43 l-1 42 -15 -42 c-10
-29 -21 -43 -32 -43 -12 0 -22 14 -32 43 l-14 42 -3 -42 c-3 -35 -7 -43 -23
-43 -17 0 -19 8 -19 86 l0 85 26 -3 c22 -2 29 -11 39 -44z m517 -8 c4 -6 8
-35 8 -63 0 -46 -3 -53 -19 -53 -17 0 -20 8 -23 47 -4 66 -28 70 -28 4 0 -44
-3 -51 -20 -51 -17 0 -20 7 -20 44 0 47 -16 69 -31 45 -6 -8 -7 -31 -4 -51 5
-35 3 -38 -19 -38 -23 0 -24 3 -23 64 l1 64 85 0 c53 0 89 -5 93 -12z m406 2
c7 -6 12 -33 12 -64 0 -47 -3 -54 -19 -54 -17 0 -20 8 -23 47 -4 66 -28 70
-28 4 0 -46 -2 -51 -23 -51 -20 0 -22 4 -20 38 1 21 -2 44 -7 51 -14 24 -30 1
-30 -45 0 -37 -3 -44 -20 -44 -18 0 -20 7 -20 64 l0 64 83 0 c45 0 88 -5 95
-10z"/>
</g>
</svg>
